# xmcd
#
# Track frame offsets: 
#        150
#        10721
#        19739
#        32504
#        46131
#        58614
#        71756
#        82202
#        96228
#        108988
#        122826
#        138898
#        153146
#        168150
#        180865
#        192475
#        206477
#        219786
#        230897
#        244185
#        257748
#        268755
#        280578
#        294503
#        306286
#
# Disc length: 4253 seconds
#
# Revision: 0
# Processed by: cddbd v1.5.2PL0 Copyright (c) Steve Scherf et al.
# Submitted via: ExactAudioCopyFreeDBPlugin 1.0
#
DISCID=5b109b19
DTITLE=Ray Charles - The Complete Early Recordings, Remastered, 1949-1
DTITLE=952
DYEAR=2011
DGENRE=Rhythm and Blues
TTITLE0=I Wonder Who's Kissing Her Now
TTITLE1=All to Myself
TTITLE2=Lonely Boy
TTITLE3=Baby Let Me Hold Your Hand
TTITLE4=I'm Glad for Your Sake
TTITLE5=Baby Won't You Please Come Home
TTITLE6=Hey Now
TTITLE7=Kissa Me Baby
TTITLE8=The Snow is Falling
TTITLE9=Misery in My Heart
TTITLE10=Baby Let Me Hear You Call My Name
TTITLE11=Walkin' and Talkin'
TTITLE12=I'm Wonderin' and Wonderin'
TTITLE13=I Can't Do No More (Why Did You Go)
TTITLE14=Guitar Bues
TTITLE15=I Cover the Waterfront (featured with Bill Samuels)
TTITLE16=Jockey Blues (featured with Bill Samuels)
TTITLE17=I'm Coming Home to Stay (featured with Bill Samuels)
TTITLE18=My Bicycle Tillie (featured with Bill Samuels)
TTITLE19=One Hundred Years from Today (featured with Bill Samuels)
TTITLE20=Candy Store Jump (featured with Bill Samuels)
TTITLE21=That Chick's Too Young to Fry (featured with Bill Samuels)
TTITLE22=I Cover the Waterfront (featured with Bill Samuels)
TTITLE23=Jockey Blues (featured with Bill Samuels)
TTITLE24=Port Wine (featured with Bill Samuels)
EXTD=
EXTT0=
EXTT1=
EXTT2=
EXTT3=
EXTT4=
EXTT5=
EXTT6=
EXTT7=
EXTT8=
EXTT9=
EXTT10=
EXTT11=
EXTT12=
EXTT13=
EXTT14=
EXTT15=
EXTT16=
EXTT17=
EXTT18=
EXTT19=
EXTT20=
EXTT21=
EXTT22=
EXTT23=
EXTT24=
PLAYORDER=
